G75*
G70*
%OFA0B0*%
%FSLAX24Y24*%
%IPPOS*%
%LPD*%
%AMOC8*
5,1,8,0,0,1.08239X$1,22.5*
%
%ADD10C,0.0000*%
%ADD11C,0.0040*%
%ADD12R,0.0128X0.0167*%
%ADD13R,0.0138X0.0138*%
%ADD14C,0.0060*%
%ADD15C,0.0050*%
D10*
X000254Y000496D02*
X000254Y006301D01*
X035707Y006286D01*
X035707Y000480D01*
X000254Y000496D01*
D11*
X013523Y001310D02*
X013523Y001771D01*
X013753Y001771D01*
X013830Y001694D01*
X013830Y001540D01*
X013753Y001464D01*
X013523Y001464D01*
X013676Y001464D02*
X013830Y001310D01*
X013983Y001310D02*
X014290Y001617D01*
X014290Y001694D01*
X014214Y001771D01*
X014060Y001771D01*
X013983Y001694D01*
X013983Y001310D02*
X014290Y001310D01*
X016642Y001919D02*
X017103Y001919D01*
X017103Y002226D01*
X017103Y002379D02*
X016642Y002379D01*
X016642Y002686D01*
X016872Y002533D02*
X016872Y002379D01*
X017103Y002379D02*
X017103Y002686D01*
X017103Y002840D02*
X016642Y002840D01*
X016642Y003070D01*
X016719Y003147D01*
X017026Y003147D01*
X017103Y003070D01*
X017103Y002840D01*
X017103Y003300D02*
X017103Y003607D01*
X017103Y003454D02*
X016642Y003454D01*
X016796Y003300D01*
D12*
X016393Y003019D03*
X015852Y003019D03*
D13*
X016123Y003172D03*
D14*
X001825Y004825D02*
X001575Y004575D01*
X001075Y004575D01*
X000825Y004825D01*
X000825Y005325D01*
X001075Y005575D01*
X001575Y005575D01*
X001825Y005325D01*
X001825Y004825D01*
X001543Y002432D02*
X001043Y002432D01*
X000793Y002182D01*
X000793Y001682D01*
X001043Y001432D01*
X001543Y001432D01*
X001793Y001682D01*
X001793Y002182D01*
X001543Y002432D01*
D15*
X002017Y001987D02*
X002167Y001987D01*
X002092Y001987D02*
X002092Y001612D01*
X002017Y001537D01*
X001942Y001537D01*
X001867Y001612D01*
X002328Y001537D02*
X002328Y001987D01*
X002553Y001987D01*
X002628Y001912D01*
X002628Y001762D01*
X002553Y001687D01*
X002328Y001687D01*
X002788Y001537D02*
X003088Y001837D01*
X003088Y001912D01*
X003013Y001987D01*
X002863Y001987D01*
X002788Y001912D01*
X002788Y001537D02*
X003088Y001537D01*
X003041Y005020D02*
X003341Y005020D01*
X003191Y005020D02*
X003191Y005471D01*
X003041Y005321D01*
X002881Y005396D02*
X002881Y005245D01*
X002805Y005170D01*
X002580Y005170D01*
X002345Y005095D02*
X002345Y005471D01*
X002270Y005471D02*
X002420Y005471D01*
X002580Y005471D02*
X002805Y005471D01*
X002881Y005396D01*
X002580Y005471D02*
X002580Y005020D01*
X002345Y005095D02*
X002270Y005020D01*
X002195Y005020D01*
X002120Y005095D01*
M02*
