G75*
G70*
%OFA0B0*%
%FSLAX24Y24*%
%IPPOS*%
%LPD*%
%AMOC8*
5,1,8,0,0,1.08239X$1,22.5*
%
%ADD10C,0.0000*%
%ADD11R,0.0540X0.0339*%
%ADD12R,0.0512X0.0276*%
%ADD13C,0.0357*%
%ADD14R,0.0552X0.0434*%
%ADD15R,0.0631X0.0552*%
%ADD16C,0.0690*%
%ADD17R,0.0690X0.0690*%
%ADD18R,0.0827X0.0631*%
%ADD19R,0.0827X0.1536*%
%ADD20OC8,0.0800*%
%ADD21R,0.0808X0.0808*%
D10*
X000254Y000496D02*
X000254Y006301D01*
X035707Y006286D01*
X035707Y000480D01*
X000254Y000496D01*
D11*
X018494Y001721D03*
X018494Y002221D03*
X018494Y002721D03*
X018494Y003221D03*
X018494Y003721D03*
X018494Y004221D03*
X018494Y004721D03*
X018494Y005221D03*
X021494Y005221D03*
X021494Y004721D03*
X021494Y004221D03*
X021494Y003721D03*
X021494Y003221D03*
X021494Y002721D03*
X021494Y002221D03*
X021494Y001721D03*
D12*
X027291Y002234D03*
X029496Y002234D03*
X029496Y002734D03*
X027291Y002734D03*
X027291Y003234D03*
X029496Y003234D03*
X029496Y003734D03*
X027291Y003734D03*
X027291Y004234D03*
X029496Y004234D03*
X029496Y004734D03*
X027291Y004734D03*
X027291Y005234D03*
X029496Y005234D03*
D13*
X034277Y004398D02*
X034594Y004398D01*
X034594Y003906D02*
X034277Y003906D01*
X034277Y003413D02*
X034594Y003413D01*
X034594Y002921D02*
X034277Y002921D01*
X034277Y002429D02*
X034594Y002429D01*
X034594Y001937D02*
X034277Y001937D01*
D14*
X004649Y003025D03*
X002287Y003025D03*
X002287Y004025D03*
X004649Y004025D03*
D15*
X010754Y002868D03*
X010754Y002120D03*
X010892Y004876D03*
X010892Y005624D03*
X030747Y005168D03*
X030747Y004420D03*
X032075Y004437D03*
X032075Y003689D03*
D16*
X005786Y002680D03*
D17*
X005786Y004680D03*
D18*
X012457Y005011D03*
X012457Y004106D03*
X012457Y003200D03*
D19*
X014937Y004106D03*
D20*
X001325Y005075D03*
X001293Y001932D03*
D21*
X008974Y003780D03*
X017274Y005480D03*
X028374Y003980D03*
X028374Y002580D03*
X031474Y001830D03*
X020074Y001680D03*
X017274Y001580D03*
M02*
