G75*
G70*
%OFA0B0*%
%FSLAX24Y24*%
%IPPOS*%
%LPD*%
%AMOC8*
5,1,8,0,0,1.08239X$1,22.5*
%
%ADD10C,0.0000*%
%ADD11C,0.0060*%
%ADD12C,0.0317*%
%ADD13R,0.0591X0.0591*%
%ADD14R,0.0512X0.0591*%
%ADD15C,0.0650*%
%ADD16R,0.0650X0.0650*%
%ADD17OC8,0.0760*%
%ADD18C,0.0160*%
%ADD19R,0.0768X0.0768*%
%ADD20C,0.0500*%
%ADD21C,0.0240*%
%ADD22C,0.0400*%
D10*
X000254Y000496D02*
X000254Y006301D01*
X035707Y006286D01*
X035707Y000480D01*
X000254Y000496D01*
D11*
X002753Y001310D02*
X002753Y001524D01*
X002753Y001417D02*
X003394Y001417D01*
X003394Y001310D02*
X003394Y001524D01*
X003803Y001630D02*
X003910Y001737D01*
X004123Y001737D01*
X004230Y001630D01*
X004230Y001310D01*
X004444Y001310D02*
X003803Y001310D01*
X003803Y001630D01*
X003394Y001740D02*
X002753Y001740D01*
X002753Y002060D01*
X002860Y002167D01*
X003073Y002167D01*
X003180Y002060D01*
X003180Y001740D01*
X003180Y001953D02*
X003394Y002167D01*
X004017Y002061D02*
X004017Y002275D01*
X004123Y002382D01*
X004230Y002382D01*
X004230Y001955D01*
X004123Y001955D02*
X004017Y002061D01*
X004337Y001955D02*
X004444Y002061D01*
X004444Y002275D01*
X003394Y002384D02*
X003394Y002705D01*
X003287Y002811D01*
X003180Y002811D01*
X003073Y002705D01*
X003073Y002384D01*
X002753Y002384D02*
X002753Y002705D01*
X002860Y002811D01*
X002967Y002811D01*
X003073Y002705D01*
X004017Y002599D02*
X004444Y002813D01*
X004017Y003026D01*
X003394Y003136D02*
X003287Y003029D01*
X003073Y003029D01*
X002967Y003136D01*
X002967Y003349D01*
X003073Y003456D01*
X003180Y003456D01*
X003180Y003029D01*
X003394Y003136D02*
X003394Y003349D01*
X003287Y003673D02*
X003180Y003780D01*
X003180Y004100D01*
X003073Y004100D02*
X003394Y004100D01*
X003394Y003780D01*
X003287Y003673D01*
X002967Y003780D02*
X002967Y003994D01*
X003073Y004100D01*
X003073Y004318D02*
X003287Y004318D01*
X003394Y004425D01*
X003394Y004745D01*
X002967Y004745D02*
X002967Y004425D01*
X003073Y004318D01*
X003803Y004315D02*
X003803Y003888D01*
X004123Y003888D01*
X004017Y004102D01*
X004017Y004208D01*
X004123Y004315D01*
X004337Y004315D01*
X004444Y004208D01*
X004444Y003995D01*
X004337Y003888D01*
X003287Y004962D02*
X003073Y004962D01*
X002967Y005069D01*
X002967Y005283D01*
X003073Y005389D01*
X003287Y005389D01*
X003394Y005283D01*
X003394Y005069D01*
X003287Y004962D01*
X003394Y005607D02*
X002967Y005607D01*
X002967Y005927D01*
X003073Y006034D01*
X003394Y006034D01*
X003394Y002384D02*
X002753Y002384D01*
X004123Y001955D02*
X004337Y001955D01*
X004444Y001737D02*
X004230Y001524D01*
D12*
X034277Y001937D02*
X034594Y001937D01*
X034594Y002429D02*
X034277Y002429D01*
X034277Y002921D02*
X034594Y002921D01*
X034594Y003413D02*
X034277Y003413D01*
X034277Y003906D02*
X034594Y003906D01*
X034594Y004398D02*
X034277Y004398D01*
D13*
X016123Y003930D03*
X016123Y002552D03*
D14*
X014548Y002290D03*
X013800Y002290D03*
D15*
X005786Y002680D03*
D16*
X005786Y004680D03*
D17*
X001325Y005075D03*
X001293Y001932D03*
D18*
X005087Y001907D02*
X013387Y001907D01*
X013376Y001925D02*
X013400Y001884D01*
X013433Y001851D01*
X013474Y001827D01*
X013520Y001815D01*
X013752Y001815D01*
X013752Y002242D01*
X013848Y002242D01*
X013848Y001815D01*
X013955Y001815D01*
X013970Y001780D01*
X014077Y001673D01*
X014216Y001615D01*
X014879Y001615D01*
X014989Y001660D01*
X015986Y001660D01*
X016218Y001756D01*
X016338Y001876D01*
X016493Y001876D01*
X016633Y001934D01*
X016740Y002041D01*
X016798Y002181D01*
X016798Y002923D01*
X016740Y003062D01*
X016633Y003169D01*
X016493Y003227D01*
X015752Y003227D01*
X015612Y003169D01*
X015505Y003062D01*
X015447Y002923D01*
X015447Y002920D01*
X014989Y002920D01*
X014879Y002966D01*
X014216Y002966D01*
X014077Y002908D01*
X013970Y002801D01*
X013955Y002766D01*
X013848Y002766D01*
X013848Y002338D01*
X013752Y002338D01*
X013752Y002242D01*
X013364Y002242D01*
X013364Y001971D01*
X013376Y001925D01*
X013752Y001907D02*
X013848Y001907D01*
X013848Y002065D02*
X013752Y002065D01*
X013364Y002065D02*
X005087Y002065D01*
X005087Y002224D02*
X005570Y002224D01*
X005592Y002212D02*
X005668Y002187D01*
X005747Y002175D01*
X005786Y002175D01*
X005786Y002680D01*
X005281Y002680D01*
X005281Y002640D01*
X005294Y002562D01*
X005318Y002486D01*
X005354Y002415D01*
X005401Y002351D01*
X005457Y002295D01*
X005522Y002248D01*
X005592Y002212D01*
X005786Y002224D02*
X005786Y002224D01*
X005786Y002175D02*
X005826Y002175D01*
X005905Y002187D01*
X005980Y002212D01*
X006051Y002248D01*
X006115Y002295D01*
X006171Y002351D01*
X006218Y002415D01*
X006254Y002486D01*
X006279Y002562D01*
X006291Y002640D01*
X006291Y002680D01*
X006291Y002720D01*
X006279Y002798D01*
X006254Y002874D01*
X006218Y002945D01*
X006171Y003009D01*
X006115Y003065D01*
X006051Y003112D01*
X005980Y003148D01*
X005905Y003173D01*
X005826Y003185D01*
X005786Y003185D01*
X005747Y003185D01*
X005668Y003173D01*
X005592Y003148D01*
X005522Y003112D01*
X005457Y003065D01*
X005401Y003009D01*
X005354Y002945D01*
X005318Y002874D01*
X005294Y002798D01*
X005281Y002720D01*
X005281Y002680D01*
X005786Y002680D01*
X005786Y002680D01*
X005786Y003185D01*
X005786Y002680D01*
X005786Y002680D01*
X005786Y002680D01*
X005786Y002175D01*
X006003Y002224D02*
X013364Y002224D01*
X013752Y002224D02*
X013848Y002224D01*
X013752Y002338D02*
X013364Y002338D01*
X013364Y002609D01*
X013376Y002655D01*
X013400Y002696D01*
X013433Y002730D01*
X013474Y002753D01*
X013520Y002766D01*
X013752Y002766D01*
X013752Y002338D01*
X013752Y002382D02*
X013848Y002382D01*
X013848Y002541D02*
X013752Y002541D01*
X013364Y002541D02*
X006272Y002541D01*
X006291Y002680D02*
X005786Y002680D01*
X006291Y002680D01*
X006291Y002699D02*
X013403Y002699D01*
X013752Y002699D02*
X013848Y002699D01*
X014026Y002858D02*
X006260Y002858D01*
X006164Y003016D02*
X015486Y003016D01*
X015625Y003175D02*
X005892Y003175D01*
X005786Y003175D02*
X005786Y003175D01*
X005680Y003175D02*
X005087Y003175D01*
X005087Y003016D02*
X005408Y003016D01*
X005786Y003016D02*
X005786Y003016D01*
X005786Y002858D02*
X005786Y002858D01*
X005313Y002858D02*
X005087Y002858D01*
X005087Y002699D02*
X005281Y002699D01*
X005786Y002699D02*
X005786Y002699D01*
X005786Y002680D02*
X005786Y002680D01*
X005786Y002541D02*
X005786Y002541D01*
X005301Y002541D02*
X005087Y002541D01*
X005087Y002382D02*
X005379Y002382D01*
X005786Y002382D02*
X005786Y002382D01*
X006194Y002382D02*
X013364Y002382D01*
X016566Y001907D02*
X019310Y001907D01*
X019310Y002065D02*
X016750Y002065D01*
X016798Y002224D02*
X019345Y002224D01*
X019368Y002279D02*
X019310Y002139D01*
X019310Y001221D01*
X019368Y001081D01*
X019475Y000974D01*
X019614Y000916D01*
X020533Y000916D01*
X020673Y000974D01*
X020780Y001081D01*
X020788Y001100D01*
X029389Y001100D01*
X029602Y001188D01*
X029765Y001351D01*
X030714Y002300D01*
X030710Y002289D01*
X030710Y001371D01*
X030768Y001231D01*
X030875Y001124D01*
X031014Y001066D01*
X031389Y001066D01*
X031577Y000863D01*
X031582Y000851D01*
X031655Y000778D01*
X031726Y000702D01*
X031737Y000697D01*
X031745Y000688D01*
X031809Y000662D01*
X004780Y000674D01*
X004789Y000675D01*
X004821Y000684D01*
X004853Y000695D01*
X004883Y000709D01*
X004911Y000726D01*
X004939Y000745D01*
X004964Y000766D01*
X004987Y000790D01*
X005009Y000815D01*
X005028Y000842D01*
X005044Y000871D01*
X005058Y000901D01*
X005070Y000932D01*
X005078Y000964D01*
X005084Y000997D01*
X005087Y001030D01*
X005087Y004266D01*
X005139Y004140D01*
X005246Y004033D01*
X005386Y003975D01*
X006187Y003975D01*
X006327Y004033D01*
X006433Y004140D01*
X006491Y004279D01*
X006491Y005081D01*
X006433Y005220D01*
X006327Y005327D01*
X006187Y005385D01*
X005386Y005385D01*
X005246Y005327D01*
X005139Y005220D01*
X005087Y005094D01*
X005087Y005930D01*
X005084Y005963D01*
X005078Y005995D01*
X005070Y006027D01*
X005058Y006059D01*
X005044Y006089D01*
X005028Y006117D01*
X005027Y006119D01*
X016603Y006114D01*
X016568Y006079D01*
X016510Y005939D01*
X016510Y005021D01*
X016568Y004881D01*
X016675Y004774D01*
X016814Y004716D01*
X017733Y004716D01*
X017873Y004774D01*
X017949Y004850D01*
X033744Y004850D01*
X033744Y004518D01*
X033738Y004505D01*
X033738Y004460D01*
X029558Y004460D01*
X029345Y004372D01*
X029182Y004209D01*
X029182Y004209D01*
X029138Y004164D01*
X029138Y004439D01*
X029080Y004579D01*
X028973Y004686D01*
X028833Y004744D01*
X027914Y004744D01*
X027775Y004686D01*
X027699Y004610D01*
X016048Y004610D01*
X016035Y004605D01*
X015752Y004605D01*
X015612Y004547D01*
X015505Y004440D01*
X015447Y004300D01*
X015447Y003559D01*
X015505Y003419D01*
X015612Y003312D01*
X015752Y003254D01*
X016493Y003254D01*
X016633Y003312D01*
X016671Y003350D01*
X027699Y003350D01*
X027769Y003280D01*
X027668Y003179D01*
X027610Y003039D01*
X027610Y002260D01*
X020788Y002260D01*
X020780Y002279D01*
X020673Y002386D01*
X020533Y002444D01*
X019614Y002444D01*
X019475Y002386D01*
X019368Y002279D01*
X019471Y002382D02*
X016798Y002382D01*
X016798Y002541D02*
X027610Y002541D01*
X027610Y002699D02*
X016798Y002699D01*
X016798Y002858D02*
X027610Y002858D01*
X027610Y003016D02*
X016759Y003016D01*
X016620Y003175D02*
X027666Y003175D01*
X027716Y003333D02*
X016654Y003333D01*
X015591Y003333D02*
X005087Y003333D01*
X005087Y003492D02*
X015475Y003492D01*
X015447Y003650D02*
X005087Y003650D01*
X005087Y003809D02*
X015447Y003809D01*
X015447Y003967D02*
X005087Y003967D01*
X005087Y004126D02*
X005153Y004126D01*
X006419Y004126D02*
X015447Y004126D01*
X015447Y004284D02*
X006491Y004284D01*
X006491Y004443D02*
X015507Y004443D01*
X015742Y004601D02*
X006491Y004601D01*
X006491Y004760D02*
X016710Y004760D01*
X016552Y004918D02*
X006491Y004918D01*
X006491Y005077D02*
X016510Y005077D01*
X016510Y005235D02*
X006419Y005235D01*
X005154Y005235D02*
X005087Y005235D01*
X005087Y005394D02*
X016510Y005394D01*
X016510Y005552D02*
X005087Y005552D01*
X005087Y005711D02*
X016510Y005711D01*
X016510Y005869D02*
X005087Y005869D01*
X005070Y006028D02*
X016546Y006028D01*
X017838Y004760D02*
X033744Y004760D01*
X033744Y004601D02*
X029058Y004601D01*
X029136Y004443D02*
X029516Y004443D01*
X029257Y004284D02*
X029138Y004284D01*
X027610Y002382D02*
X020677Y002382D01*
X019310Y001748D02*
X016198Y001748D01*
X014001Y001748D02*
X005087Y001748D01*
X005087Y001590D02*
X019310Y001590D01*
X019310Y001431D02*
X005087Y001431D01*
X005087Y001273D02*
X019310Y001273D01*
X019354Y001114D02*
X005087Y001114D01*
X005076Y000956D02*
X019519Y000956D01*
X020628Y000956D02*
X031492Y000956D01*
X030899Y001114D02*
X029423Y001114D01*
X029686Y001273D02*
X030750Y001273D01*
X030710Y001431D02*
X029845Y001431D01*
X030003Y001590D02*
X030710Y001590D01*
X030710Y001748D02*
X030162Y001748D01*
X030320Y001907D02*
X030710Y001907D01*
X030710Y002065D02*
X030479Y002065D01*
X030637Y002224D02*
X030710Y002224D01*
X031636Y000797D02*
X004994Y000797D01*
D19*
X017274Y001580D03*
X020074Y001680D03*
X028374Y002580D03*
X031474Y001830D03*
X028374Y003980D03*
X017274Y005480D03*
X008974Y003780D03*
D20*
X015861Y002290D02*
X016123Y002552D01*
X015861Y002290D02*
X014548Y002290D01*
X016123Y003930D02*
X016173Y003980D01*
X028374Y003980D01*
X034374Y004580D02*
X034374Y005480D01*
X017274Y005480D01*
D21*
X034374Y004580D02*
X034374Y004459D01*
X034435Y004398D01*
X034435Y003906D02*
X034410Y003880D01*
X034452Y003430D02*
X034435Y003413D01*
D22*
X034452Y003430D02*
X035224Y003430D01*
X035224Y001480D01*
X034924Y001180D01*
X032074Y001180D01*
X031474Y001830D01*
X030874Y003280D02*
X029274Y001680D01*
X020074Y001680D01*
X028374Y002580D02*
X029674Y003880D01*
X034410Y003880D01*
X033024Y002429D02*
X032174Y003280D01*
X030874Y003280D01*
X033024Y002429D02*
X034435Y002429D01*
M02*
