G75*
G70*
%OFA0B0*%
%FSLAX24Y24*%
%IPPOS*%
%LPD*%
%AMOC8*
5,1,8,0,0,1.08239X$1,22.5*
%
%ADD10C,0.0000*%
%ADD11C,0.0050*%
%ADD12C,0.0040*%
%ADD13C,0.0080*%
%ADD14C,0.0020*%
%ADD15R,0.0344X0.0197*%
%ADD16C,0.0100*%
%ADD17C,0.0070*%
%ADD18C,0.0010*%
D10*
X000254Y000496D02*
X000254Y006301D01*
X035707Y006286D01*
X035707Y000480D01*
X000254Y000496D01*
D11*
X018882Y001246D02*
X021106Y001246D01*
X021106Y005695D01*
X018882Y005695D01*
X018882Y001246D01*
D12*
X020067Y002548D02*
X019991Y002624D01*
X019991Y002778D01*
X020067Y002855D01*
X020144Y002855D01*
X020221Y002778D01*
X020221Y002624D01*
X020297Y002548D01*
X020374Y002548D01*
X020451Y002624D01*
X020451Y002778D01*
X020374Y002855D01*
X020451Y003008D02*
X019991Y003008D01*
X020144Y003161D01*
X019991Y003315D01*
X020451Y003315D01*
X020297Y003468D02*
X020451Y003622D01*
X019991Y003622D01*
X019991Y003775D02*
X019991Y003468D01*
X014198Y003510D02*
X014121Y003433D01*
X013814Y003433D01*
X013737Y003510D01*
X013737Y003663D01*
X013814Y003740D01*
X014121Y003740D02*
X014198Y003663D01*
X014198Y003510D01*
X014198Y003279D02*
X014198Y003126D01*
X014198Y003203D02*
X013737Y003203D01*
X013737Y003279D02*
X013737Y003126D01*
X011734Y002705D02*
X011658Y002781D01*
X011581Y002781D01*
X011274Y002475D01*
X011274Y002781D01*
X011734Y002705D02*
X011734Y002551D01*
X011658Y002475D01*
X011658Y002321D02*
X011734Y002244D01*
X011734Y002091D01*
X011658Y002014D01*
X011351Y002014D01*
X011274Y002091D01*
X011274Y002244D01*
X011351Y002321D01*
X003931Y002919D02*
X003931Y003135D01*
X002976Y003181D02*
X002960Y003178D01*
X002946Y003172D01*
X002933Y003163D01*
X002922Y003151D01*
X002914Y003138D01*
X002909Y003123D01*
X002907Y003107D01*
X002909Y003091D01*
X002914Y003076D01*
X002922Y003063D01*
X002933Y003051D01*
X002946Y003042D01*
X002960Y003036D01*
X002976Y003033D01*
X002992Y003030D01*
X003006Y003024D01*
X003019Y003015D01*
X003030Y003003D01*
X003038Y002990D01*
X003043Y002975D01*
X003045Y002959D01*
X003043Y002943D01*
X003038Y002928D01*
X003030Y002915D01*
X003019Y002903D01*
X003006Y002894D01*
X002992Y002888D01*
X002976Y002885D01*
X003931Y003919D02*
X003931Y004135D01*
X004029Y004027D02*
X003823Y004027D01*
X002976Y004017D02*
X002960Y004020D01*
X002946Y004026D01*
X002933Y004035D01*
X002922Y004047D01*
X002914Y004060D01*
X002909Y004075D01*
X002907Y004091D01*
X002909Y004107D01*
X002914Y004122D01*
X002922Y004135D01*
X002933Y004147D01*
X002946Y004156D01*
X002960Y004162D01*
X002976Y004165D01*
X002976Y004017D02*
X002992Y004014D01*
X003006Y004008D01*
X003019Y003999D01*
X003030Y003987D01*
X003038Y003974D01*
X003043Y003959D01*
X003045Y003943D01*
X003043Y003927D01*
X003038Y003912D01*
X003030Y003899D01*
X003019Y003887D01*
X003006Y003878D01*
X002992Y003872D01*
X002976Y003869D01*
X009912Y004926D02*
X009989Y004849D01*
X010295Y004849D01*
X010372Y004926D01*
X010372Y005079D01*
X010295Y005156D01*
X009989Y005156D02*
X009912Y005079D01*
X009912Y004926D01*
X009989Y005310D02*
X009912Y005386D01*
X009912Y005540D01*
X009989Y005617D01*
X010065Y005617D01*
X010142Y005540D01*
X010142Y005463D01*
X010142Y005540D02*
X010219Y005617D01*
X010295Y005617D01*
X010372Y005540D01*
X010372Y005386D01*
X010295Y005310D01*
X013737Y004200D02*
X013737Y003893D01*
X014044Y003893D02*
X014198Y004047D01*
X013737Y004047D01*
X031267Y004391D02*
X031267Y004544D01*
X031344Y004621D01*
X031651Y004621D02*
X031727Y004544D01*
X031727Y004391D01*
X031651Y004314D01*
X031344Y004314D01*
X031267Y004391D01*
X032595Y004447D02*
X033056Y004447D01*
X032902Y004293D01*
X032595Y004293D02*
X032595Y004600D01*
X031727Y004928D02*
X031574Y004775D01*
X031267Y004775D02*
X031267Y005081D01*
X031267Y004928D02*
X031727Y004928D01*
X032595Y004140D02*
X032749Y003986D01*
X033376Y003924D02*
X033376Y003617D01*
X033683Y003617D02*
X033836Y003771D01*
X033376Y003771D01*
X033056Y003833D02*
X033056Y004063D01*
X032979Y004140D01*
X032825Y004140D01*
X032749Y004063D01*
X032749Y003833D01*
X032595Y003833D02*
X033056Y003833D01*
X033376Y003464D02*
X033836Y003157D01*
X033836Y003464D02*
X033376Y003157D01*
D13*
X035518Y002971D02*
X035715Y002921D01*
X035518Y002872D01*
X035518Y002478D02*
X035715Y002429D01*
X035518Y002380D01*
X035518Y001986D02*
X035715Y001937D01*
X035518Y001888D01*
X034534Y001593D02*
X034041Y001593D01*
X034041Y001386D01*
X036158Y001386D01*
X036158Y001445D01*
X036158Y004890D01*
X036158Y004949D01*
X034041Y004949D01*
X034041Y004742D01*
X034534Y004742D01*
X034534Y004939D01*
X035518Y004447D02*
X035715Y004398D01*
X035518Y004349D01*
X035518Y003955D02*
X035715Y003906D01*
X035518Y003856D01*
X035518Y003463D02*
X035715Y003413D01*
X035518Y003364D01*
X029160Y002025D02*
X029155Y002005D01*
X029147Y001986D01*
X029136Y001968D01*
X029123Y001952D01*
X029107Y001939D01*
X029090Y001928D01*
X029071Y001920D01*
X029051Y001915D01*
X029030Y001913D01*
X029009Y001914D01*
X029010Y001914D02*
X027777Y001914D01*
X027754Y001916D01*
X027731Y001921D01*
X027709Y001930D01*
X027689Y001943D01*
X027671Y001958D01*
X027656Y001976D01*
X027643Y001996D01*
X027634Y002018D01*
X027629Y002041D01*
X027627Y002064D01*
X027627Y005404D01*
X027627Y005405D02*
X027632Y005429D01*
X027640Y005452D01*
X027651Y005473D01*
X027665Y005493D01*
X027682Y005511D01*
X027701Y005526D01*
X027722Y005539D01*
X027744Y005548D01*
X027768Y005554D01*
X027792Y005556D01*
X027817Y005555D01*
X027821Y005554D02*
X028153Y005554D01*
X028153Y005534D02*
X028155Y005504D01*
X028160Y005474D01*
X028169Y005445D01*
X028182Y005418D01*
X028197Y005392D01*
X028216Y005368D01*
X028237Y005347D01*
X028261Y005328D01*
X028287Y005313D01*
X028314Y005300D01*
X028343Y005291D01*
X028373Y005286D01*
X028403Y005284D01*
X028433Y005286D01*
X028463Y005291D01*
X028492Y005300D01*
X028519Y005313D01*
X028545Y005328D01*
X028569Y005347D01*
X028590Y005368D01*
X028609Y005392D01*
X028624Y005418D01*
X028637Y005445D01*
X028646Y005474D01*
X028651Y005504D01*
X028653Y005534D01*
X028653Y005554D02*
X029049Y005554D01*
X029049Y005555D02*
X029069Y005550D01*
X029088Y005542D01*
X029106Y005531D01*
X029122Y005518D01*
X029135Y005502D01*
X029146Y005485D01*
X029154Y005466D01*
X029159Y005446D01*
X029161Y005425D01*
X029160Y005404D01*
X029160Y002025D01*
X034534Y001593D02*
X034534Y001396D01*
X014397Y002816D02*
X014397Y005396D01*
X012997Y005396D01*
X012997Y002816D01*
X014397Y002816D01*
X006286Y002930D02*
X006286Y002430D01*
X003636Y003680D02*
X003639Y003785D01*
X003646Y003891D01*
X003659Y003995D01*
X003677Y004099D01*
X003700Y004202D01*
X003729Y004304D01*
X003762Y004404D01*
X003800Y004503D01*
X003842Y004599D01*
X003890Y004694D01*
X003942Y004785D01*
X003998Y004874D01*
X004059Y004961D01*
X004124Y005044D01*
X004193Y005124D01*
X004266Y005200D01*
X004342Y005273D01*
X004422Y005342D01*
X004505Y005407D01*
X004592Y005468D01*
X004681Y005524D01*
X004772Y005576D01*
X004867Y005624D01*
X004963Y005666D01*
X005062Y005704D01*
X005162Y005737D01*
X005264Y005766D01*
X005367Y005789D01*
X005471Y005807D01*
X005575Y005820D01*
X005681Y005827D01*
X005786Y005830D01*
X005891Y005827D01*
X005997Y005820D01*
X006101Y005807D01*
X006205Y005789D01*
X006308Y005766D01*
X006410Y005737D01*
X006510Y005704D01*
X006609Y005666D01*
X006705Y005624D01*
X006800Y005576D01*
X006891Y005524D01*
X006980Y005468D01*
X007067Y005407D01*
X007150Y005342D01*
X007230Y005273D01*
X007306Y005200D01*
X007379Y005124D01*
X007448Y005044D01*
X007513Y004961D01*
X007574Y004874D01*
X007630Y004785D01*
X007682Y004694D01*
X007730Y004599D01*
X007772Y004503D01*
X007810Y004404D01*
X007843Y004304D01*
X007872Y004202D01*
X007895Y004099D01*
X007913Y003995D01*
X007926Y003891D01*
X007933Y003785D01*
X007936Y003680D01*
X007933Y003575D01*
X007926Y003469D01*
X007913Y003365D01*
X007895Y003261D01*
X007872Y003158D01*
X007843Y003056D01*
X007810Y002956D01*
X007772Y002857D01*
X007730Y002761D01*
X007682Y002666D01*
X007630Y002575D01*
X007574Y002486D01*
X007513Y002399D01*
X007448Y002316D01*
X007379Y002236D01*
X007306Y002160D01*
X007230Y002087D01*
X007150Y002018D01*
X007067Y001953D01*
X006980Y001892D01*
X006891Y001836D01*
X006800Y001784D01*
X006705Y001736D01*
X006609Y001694D01*
X006510Y001656D01*
X006410Y001623D01*
X006308Y001594D01*
X006205Y001571D01*
X006101Y001553D01*
X005997Y001540D01*
X005891Y001533D01*
X005786Y001530D01*
X005681Y001533D01*
X005575Y001540D01*
X005471Y001553D01*
X005367Y001571D01*
X005264Y001594D01*
X005162Y001623D01*
X005062Y001656D01*
X004963Y001694D01*
X004867Y001736D01*
X004772Y001784D01*
X004681Y001836D01*
X004592Y001892D01*
X004505Y001953D01*
X004422Y002018D01*
X004342Y002087D01*
X004266Y002160D01*
X004193Y002236D01*
X004124Y002316D01*
X004059Y002399D01*
X003998Y002486D01*
X003942Y002575D01*
X003890Y002666D01*
X003842Y002761D01*
X003800Y002857D01*
X003762Y002956D01*
X003729Y003056D01*
X003700Y003158D01*
X003677Y003261D01*
X003659Y003365D01*
X003646Y003469D01*
X003639Y003575D01*
X003636Y003680D01*
D14*
X027877Y004626D02*
X028170Y004626D01*
X028134Y004662D02*
X028097Y004699D01*
X028134Y004662D02*
X028134Y004589D01*
X028097Y004552D01*
X028060Y004552D01*
X028023Y004589D01*
X028023Y004662D01*
X027987Y004699D01*
X027950Y004699D01*
X027913Y004662D01*
X027913Y004589D01*
X027950Y004552D01*
X027950Y004478D02*
X028134Y004478D01*
X027950Y004478D02*
X027913Y004441D01*
X027913Y004368D01*
X027950Y004331D01*
X028134Y004331D01*
X028060Y004773D02*
X028134Y004847D01*
X027913Y004847D01*
X027913Y004920D02*
X027913Y004773D01*
X035173Y004644D02*
X035518Y004644D01*
X035518Y004742D01*
X036010Y004742D01*
X036158Y004890D01*
X036010Y004742D02*
X036010Y001593D01*
X036158Y001445D01*
X036010Y001593D02*
X035518Y001593D01*
X035518Y001691D01*
X035173Y001691D01*
X035173Y004644D01*
X035518Y004742D02*
X035518Y004939D01*
X035518Y001593D02*
X035518Y001396D01*
D15*
X035346Y001937D03*
X035346Y002429D03*
X035346Y002921D03*
X035346Y003413D03*
X035346Y003906D03*
X035346Y004398D03*
D16*
X004246Y004440D02*
X004246Y002610D01*
X002691Y002610D01*
X002691Y004440D01*
X004246Y004440D01*
D17*
X004222Y004696D02*
X004222Y005326D01*
X004432Y005116D01*
X004657Y005116D02*
X004762Y005011D01*
X005077Y005011D01*
X004762Y005011D02*
X004657Y004906D01*
X004657Y004801D01*
X004762Y004696D01*
X005077Y004696D01*
X005077Y005326D01*
X004762Y005326D01*
X004657Y005221D01*
X004657Y005116D01*
X004432Y004696D02*
X004012Y004696D01*
D18*
X006941Y003607D02*
X007091Y003607D01*
X007016Y003532D01*
X007016Y003632D01*
X006966Y003485D02*
X006941Y003460D01*
X006941Y003410D01*
X006966Y003385D01*
X007066Y003385D01*
X007091Y003410D01*
X007091Y003460D01*
X007066Y003485D01*
M02*
