G75*
G70*
%OFA0B0*%
%FSLAX24Y24*%
%IPPOS*%
%LPD*%
%AMOC8*
5,1,8,0,0,1.08239X$1,22.5*
%
%ADD10C,0.0000*%
%ADD11R,0.0500X0.0299*%
%ADD12R,0.0472X0.0236*%
%ADD13R,0.0512X0.0394*%
%ADD14R,0.0591X0.0512*%
%ADD15R,0.0787X0.0591*%
%ADD16R,0.0787X0.1496*%
D10*
X000254Y000496D02*
X000254Y006301D01*
X035707Y006286D01*
X035707Y000480D01*
X000254Y000496D01*
D11*
X018494Y001721D03*
X018494Y002221D03*
X018494Y002721D03*
X018494Y003221D03*
X018494Y003721D03*
X018494Y004221D03*
X018494Y004721D03*
X018494Y005221D03*
X021494Y005221D03*
X021494Y004721D03*
X021494Y004221D03*
X021494Y003721D03*
X021494Y003221D03*
X021494Y002721D03*
X021494Y002221D03*
X021494Y001721D03*
D12*
X027291Y002234D03*
X029496Y002234D03*
X029496Y002734D03*
X027291Y002734D03*
X027291Y003234D03*
X029496Y003234D03*
X029496Y003734D03*
X027291Y003734D03*
X027291Y004234D03*
X029496Y004234D03*
X029496Y004734D03*
X027291Y004734D03*
X027291Y005234D03*
X029496Y005234D03*
D13*
X004649Y004025D03*
X002287Y004025D03*
X002287Y003025D03*
X004649Y003025D03*
D14*
X010754Y002868D03*
X010754Y002120D03*
X010892Y004876D03*
X010892Y005624D03*
X030747Y005168D03*
X030747Y004420D03*
X032075Y004437D03*
X032075Y003689D03*
D15*
X012457Y004106D03*
X012457Y003200D03*
X012457Y005011D03*
D16*
X014937Y004106D03*
M02*
